HIERARCHY
ROOT Hips
{
	OFFSET -0.001795 -0.223333 0.028219
	CHANNELS 6 Xposition Yposition Zposition Zrotation Yrotation Xrotation 
	JOINT LeftUpLeg
	{
		OFFSET 0.069520 -0.091406 -0.006815
		CHANNELS 3 Zrotation Yrotation Xrotation
		JOINT LeftLeg
		{
			OFFSET 0.034277 -0.375199 -0.004496
			CHANNELS 3 Zrotation Yrotation Xrotation
			JOINT LeftFoot
			{
				OFFSET -0.013596 -0.397961 -0.043693
				CHANNELS 3 Zrotation Yrotation Xrotation
				JOINT LeftToe
				{
					OFFSET 0.026358 -0.055791 0.119288
					CHANNELS 3 Zrotation Yrotation Xrotation
					End Site
					{
						OFFSET 0.000000 0.000000 0.000000
					}
				}
			}
		}
	}
	JOINT RightUpLeg
	{
		OFFSET -0.067670 -0.090522 -0.004320
		CHANNELS 3 Zrotation Yrotation Xrotation
		JOINT RightLeg
		{
			OFFSET -0.038290 -0.382569 -0.008850
			CHANNELS 3 Zrotation Yrotation Xrotation
			JOINT RightFoot
			{
				OFFSET 0.015774 -0.398415 -0.042312
				CHANNELS 3 Zrotation Yrotation Xrotation
				JOINT RightToe
				{
					OFFSET -0.025372 -0.048144 0.123348
					CHANNELS 3 Zrotation Yrotation Xrotation
					End Site
					{
						OFFSET 0.000000 0.000000 0.000000
					}
				}
			}
		}
	}
	JOINT Spine
	{
		OFFSET -0.002533 0.108963 -0.026696
		CHANNELS 3 Zrotation Yrotation Xrotation
		JOINT Spine1
		{
			OFFSET 0.005487 0.135180 0.001092
			CHANNELS 3 Zrotation Yrotation Xrotation
			JOINT Spine2
			{
				OFFSET 0.001457 0.052922 0.025425
				CHANNELS 3 Zrotation Yrotation Xrotation
				JOINT Neck
				{
					OFFSET -0.002778 0.213870 -0.042857
					CHANNELS 3 Zrotation Yrotation Xrotation
					JOINT Head
					{
						OFFSET 0.005152 0.064970 0.051349
						CHANNELS 3 Zrotation Yrotation Xrotation
						End Site
						{
							OFFSET 0.000000 0.000000 0.000000
						}
					}
				}
				JOINT LeftShoulder
				{
					OFFSET 0.078845 0.121749 -0.034090
					CHANNELS 3 Zrotation Yrotation Xrotation
					JOINT LeftArm
					{
						OFFSET 0.090977 0.030469 -0.008868
						CHANNELS 3 Zrotation Yrotation Xrotation
						JOINT LeftForeArm
						{
							OFFSET 0.259612 -0.012772 -0.027456
							CHANNELS 3 Zrotation Yrotation Xrotation
							JOINT LeftHand
							{
								OFFSET 0.249234 0.008986 -0.001171
								CHANNELS 3 Zrotation Yrotation Xrotation
								End Site
								{
									OFFSET 0.000000 0.000000 0.000000
								}
							}
						}
					}
				}
				JOINT RightShoulder
				{
					OFFSET -0.081759 0.118833 -0.038615
					CHANNELS 3 Zrotation Yrotation Xrotation
					JOINT RightArm
					{
						OFFSET -0.096012 0.032551 -0.009143
						CHANNELS 3 Zrotation Yrotation Xrotation
						JOINT RightForeArm
						{
							OFFSET -0.253742 -0.013329 -0.021401
							CHANNELS 3 Zrotation Yrotation Xrotation
							JOINT RightHand
							{
								OFFSET -0.255298 0.007772 -0.005559
								CHANNELS 3 Zrotation Yrotation Xrotation
								End Site
								{
									OFFSET 0.000000 0.000000 0.000000
								}
							}
						}
					}
				}
			}
		}
	}
}
MOTION
Frames: 11
Frame Time: 0.050000
-0.383016 0.917647 0.187596 -156.083056 -83.954453 157.644273 -4.288801 2.446386 10.189300 9.748925 -0.645210 4.927994 -7.021727 1.053200 -6.011897 0.000000 0.000000 0.000000 -7.810995 4.431105 -21.122257 -2.194487 0.620971 -0.791924 9.351036 -8.124007 25.216807 0.000000 0.000000 0.000000 1.901362 -0.117601 7.326691 1.043412 4.907584 6.374888 3.515893 -15.317728 -0.549420 0.385500 -3.334802 -26.111464 0.000000 0.000000 0.000000 -38.699736 -2.539597 30.657070 -29.085001 -20.992750 -5.939844 75.195331 -68.776801 -47.953349 0.000000 0.000000 0.000000 22.997474 20.348523 -17.146166 23.808880 -34.437205 -4.263295 55.709323 40.620630 14.996333 0.000000 0.000000 0.000000 
-0.429279 0.909132 0.163537 -147.622821 -85.411936 149.261539 -2.379894 3.384050 12.543648 10.507530 -0.715700 5.629772 -7.434011 -0.777851 -5.129148 0.000000 0.000000 0.000000 -8.677946 4.503326 -21.128254 1.448563 1.091650 4.762279 -0.631360 -6.300360 10.268231 0.000000 0.000000 0.000000 3.097861 -0.239065 6.717739 1.097044 4.951863 6.762264 3.344466 -15.561374 -1.328542 0.812048 -3.357951 -26.545861 0.000000 0.000000 0.000000 -39.664764 -2.764086 30.877667 -29.056633 -19.802970 -6.193687 83.895419 -71.143515 -57.738256 0.000000 0.000000 0.000000 23.863934 20.856778 -16.830545 23.518125 -35.574627 -4.410656 55.036091 41.813143 15.963753 0.000000 0.000000 0.000000 
-0.477188 0.901913 0.136161 -112.406346 -86.939255 113.698261 0.688324 4.100015 14.079834 11.612856 -0.555311 8.020207 -7.779229 -3.911103 -2.071729 0.000000 0.000000 0.000000 -7.566858 3.846898 -19.586154 3.589079 1.703121 9.497626 -4.983100 -8.998472 7.087620 0.000000 0.000000 0.000000 4.794426 -0.314792 6.390950 1.161988 5.182179 7.662601 3.158561 -16.256119 -2.335565 1.454392 -3.288363 -25.165149 0.000000 0.000000 0.000000 -39.804328 -3.687368 30.809842 -30.037306 -19.110356 -6.212405 85.098027 -71.648011 -59.044157 0.000000 0.000000 0.000000 25.970539 21.330232 -17.341648 21.417120 -35.704227 -3.426680 55.182825 41.035823 16.590297 0.000000 0.000000 0.000000 
-0.523178 0.899974 0.107455 -97.301127 -85.826094 98.528198 2.450080 3.704332 12.492467 13.870629 0.714394 14.535031 -3.604338 -2.020315 6.215057 0.000000 0.000000 0.000000 -5.264431 3.413352 -19.106270 6.785185 2.812344 14.551503 -9.265738 -12.394029 4.442052 0.000000 0.000000 0.000000 7.478509 -0.245835 5.456413 0.190060 5.910960 8.301675 3.196770 -14.908930 -1.111321 1.113884 -3.203987 -25.507057 0.000000 0.000000 0.000000 -39.427554 -4.335054 29.908704 -32.551605 -18.614791 -6.204868 89.111462 -72.934088 -62.975006 0.000000 0.000000 0.000000 27.524347 21.856251 -17.068293 21.766887 -35.501563 -3.403437 54.731155 42.470246 17.858769 0.000000 0.000000 0.000000 
-0.566212 0.905970 0.080824 -97.252559 -83.556850 99.036503 5.009993 2.923010 7.367879 16.549777 4.509098 25.758249 -2.341893 -3.634480 13.737627 0.000000 0.000000 0.000000 -1.247539 2.622076 -17.461734 8.120022 3.248571 15.743782 -10.101206 -12.026502 2.401760 0.000000 0.000000 0.000000 10.622740 0.078797 4.465568 0.334974 5.633454 7.750353 2.337075 -12.100246 0.210966 1.803890 -3.527191 -25.930356 0.000000 0.000000 0.000000 -39.086785 -4.643612 28.775912 -35.251408 -17.063761 -6.568132 91.781699 -74.646281 -66.122958 0.000000 0.000000 0.000000 25.466180 21.695708 -14.407889 25.549346 -31.282128 -4.204367 52.175084 44.179027 16.910403 0.000000 0.000000 0.000000 
-0.607539 0.911696 0.057448 -99.492130 -83.203962 101.384848 4.253688 1.960201 0.780849 21.257245 10.041093 39.271146 -1.636280 -3.560746 15.614441 0.000000 0.000000 0.000000 0.179916 1.542158 -13.564050 9.119079 3.080485 13.624449 -10.530512 -10.379583 0.534540 0.000000 0.000000 0.000000 11.803450 0.265553 4.260260 -1.002921 6.496268 8.168666 4.841024 -10.494334 0.513409 -0.746539 -2.568001 -26.947659 0.000000 0.000000 0.000000 -40.718256 -5.689780 30.073621 -34.480948 -17.402125 -6.642570 83.179064 -72.671275 -57.855413 0.000000 0.000000 0.000000 21.958980 21.475139 -11.520067 28.200692 -27.431157 -4.608264 55.795848 46.554958 18.045212 0.000000 0.000000 0.000000 
-0.649238 0.917044 0.036861 -98.933222 -83.417645 100.379988 2.257593 1.491979 -6.847148 21.597696 13.363544 46.052128 -1.330312 -0.919648 3.264054 0.000000 0.000000 0.000000 1.443931 0.507053 -7.864548 8.474068 2.513277 9.559109 -10.481521 -8.249658 -1.003968 0.000000 0.000000 0.000000 12.800285 0.372911 4.999900 -1.238795 5.582866 6.256667 2.976167 -8.077047 2.924917 -0.136259 -3.036606 -27.016507 0.000000 0.000000 0.000000 -40.484191 -4.945298 29.051803 -34.806408 -15.858957 -7.177738 76.705588 -75.481776 -54.226618 0.000000 0.000000 0.000000 23.029108 22.646676 -11.601501 28.327777 -25.592414 -3.890545 59.190317 49.177136 20.985068 0.000000 0.000000 0.000000 
-0.693534 0.920097 0.017323 -102.425823 -83.693654 103.690134 -0.148532 1.548864 -12.523216 4.893756 12.711663 32.049841 0.626307 16.777283 -17.526291 0.000000 0.000000 0.000000 2.453639 0.118572 -3.207878 7.876790 2.212911 6.973243 -10.530374 -6.781946 -2.284567 0.000000 0.000000 0.000000 13.069217 0.496744 4.495087 -2.145883 6.232246 6.569494 2.867934 -5.634783 3.282498 -1.568002 -2.391675 -25.718014 0.000000 0.000000 0.000000 -40.928201 -6.448233 29.207960 -34.837026 -14.142725 -7.298520 65.140960 -73.453961 -43.777870 0.000000 0.000000 0.000000 23.337222 23.136891 -10.705889 30.232160 -23.329257 -3.642635 61.907467 51.987475 23.487005 0.000000 0.000000 0.000000 
-0.740034 0.922221 -0.001921 -115.540719 -83.790494 116.195164 -1.668159 2.082274 -16.686967 -7.849162 5.491279 6.060827 22.920661 31.174713 17.976490 0.000000 0.000000 0.000000 2.757428 0.375675 2.618771 7.797553 2.115174 3.202651 -9.799852 -5.143376 -2.799912 0.000000 0.000000 0.000000 12.297630 0.357989 4.896382 -3.648787 6.857245 6.101238 3.963287 -2.683466 2.765789 -2.559060 -1.785915 -25.401877 0.000000 0.000000 0.000000 -41.152759 -5.979571 27.950490 -36.313119 -11.781649 -7.866029 49.549222 -73.132438 -30.935641 0.000000 0.000000 0.000000 23.836506 22.677562 -10.286831 30.815102 -21.209317 -3.204641 66.187859 53.672123 26.871910 0.000000 0.000000 0.000000 
-0.787832 0.920547 -0.019929 -123.164653 -83.739520 123.981382 -3.275935 2.404699 -19.646682 -7.408753 3.062360 -2.710089 15.457663 13.788381 27.003182 0.000000 0.000000 0.000000 3.195108 1.089221 7.479437 7.918299 2.232392 -0.166371 -9.440852 -4.649186 -3.018034 0.000000 0.000000 0.000000 11.251068 0.248478 4.255583 -4.948659 7.122719 5.343399 3.879880 -0.269385 3.042271 -4.661328 -0.814333 -24.471297 0.000000 0.000000 0.000000 -41.384445 -4.829274 26.380289 -35.485522 -9.046037 -8.238009 41.519498 -70.332169 -23.965387 0.000000 0.000000 0.000000 25.018976 22.032158 -10.790937 30.943330 -19.884819 -2.747458 70.692372 55.467454 31.010993 0.000000 0.000000 0.000000 
-0.836336 0.918493 -0.036323 -118.774733 -83.874139 119.424167 -3.406175 2.485288 -20.243554 -7.584980 2.743953 -6.007075 15.654620 12.258352 32.939594 0.000000 0.000000 0.000000 4.148383 1.945762 11.945433 8.538467 2.418572 -2.172014 -9.000714 -5.529989 -2.172889 0.000000 0.000000 0.000000 10.291857 0.124865 3.877074 -6.334949 7.954798 5.624468 5.117682 1.591836 2.009631 -4.487825 -0.667248 -24.325223 0.000000 0.000000 0.000000 -40.655594 -3.951129 24.013350 -35.861484 -5.961886 -8.542430 33.570308 -69.436572 -17.626106 0.000000 0.000000 0.000000 25.122876 21.404092 -9.934826 32.264690 -17.678439 -2.506656 72.053475 57.718640 33.488303 0.000000 0.000000 0.000000 
